<svg version="1.1" id="Layer_1" xmlns="http://www.w3.org/2000/svg" xmlns:xlink="http://www.w3.org/1999/xlink" x="0px" y="0px"
	 width="100%" viewBox="0 0 256 256" enable-background="new 0 0 256 256" xml:space="preserve">
<path fill="#000000" opacity="1.000000" stroke="none" 
	d="
M142.000000,257.000000 
	C95.833336,257.000000 50.166576,256.963654 4.500227,257.083435 
	C1.517136,257.091248 0.914386,256.482178 0.918056,253.499908 
	C1.020212,170.500046 1.020208,87.500000 0.918063,4.500124 
	C0.914393,1.517959 1.517778,0.914381 4.500077,0.918052 
	C87.499947,1.020212 170.499985,1.020207 253.499847,0.918067 
	C256.481964,0.914397 257.085632,1.517708 257.081940,4.500062 
	C256.979797,87.499931 256.979797,170.499969 257.081940,253.499832 
	C257.085602,256.481903 256.483582,257.094513 253.499771,257.084137 
	C216.500198,256.955353 179.500015,257.000000 142.000000,257.000000 
z"/>
<path fill="#FF6A00" opacity="1.000000" stroke="none" 
	d="
M128.974609,99.092827 
	C137.622833,103.941895 145.835892,108.905670 154.219849,113.561737 
	C156.275269,114.703217 157.064850,115.842262 157.039749,118.118050 
	C156.940659,127.103745 156.983902,136.091217 157.012054,145.077911 
	C157.017502,146.815033 156.740646,148.036179 154.941254,149.085419 
	C146.645172,153.923004 138.334961,158.720474 129.778900,163.092911 
	C128.444595,163.774796 127.583939,163.882645 126.253700,163.088074 
	C118.441803,158.421906 110.627777,153.748199 102.647339,149.382584 
	C100.504074,148.210114 99.948257,146.930939 99.967857,144.738144 
	C100.046692,135.918488 100.043121,127.097359 99.970215,118.277596 
	C99.952240,116.103088 100.451973,114.787781 102.628113,113.627312 
	C111.380577,108.959892 119.959412,103.966866 128.974609,99.092827 
z"/>
<path fill="#FF6A00" opacity="1.000000" stroke="none" 
	d="
M153.073517,199.980957 
	C145.353226,204.278793 137.996475,208.472763 130.687210,212.747925 
	C128.830414,213.833939 127.193565,213.889191 125.329140,212.758972 
	C118.233971,208.457870 111.123878,204.178635 103.944038,200.021332 
	C101.206451,198.436218 99.725601,196.703857 99.886787,193.147263 
	C100.248344,185.169662 99.980133,177.164352 100.006462,169.170441 
	C100.026917,162.958603 105.403114,159.909149 110.863762,162.979919 
	C115.826782,165.770844 120.960373,168.309174 125.665642,171.482468 
	C127.518845,172.732285 128.716202,172.838425 130.412537,171.920624 
	C135.571014,169.129593 141.072601,166.814957 145.781784,163.405045 
	C149.088806,161.010437 151.443787,161.741592 154.533768,163.054901 
	C157.970673,164.515656 156.947647,167.295959 156.971985,169.741623 
	C157.048172,177.401779 156.805847,185.070374 157.090088,192.720718 
	C157.213577,196.044281 156.280228,198.324127 153.073517,199.980957 
z"/>
<path fill="#FF6A00" opacity="1.000000" stroke="none" 
	d="
M57.002655,121.457184 
	C57.000637,111.849052 57.000717,102.686623 57.000351,93.524200 
	C57.000286,91.912529 56.853672,90.587585 58.848991,89.521370 
	C66.740974,85.304237 74.450081,80.745651 82.244125,76.344002 
	C84.639305,74.991333 86.582611,74.724594 89.393944,76.545563 
	C96.477715,81.133896 104.040726,84.985153 111.434074,89.091461 
	C114.829895,90.977516 115.332596,97.311577 111.971962,99.474686 
	C106.775604,102.819351 101.559433,106.249420 95.977585,108.835976 
	C92.560509,110.419395 91.811089,112.387672 91.948517,115.693558 
	C92.149010,120.516319 92.001122,125.353607 91.999741,130.184708 
	C91.997574,137.774963 87.623528,140.506226 80.819397,136.929886 
	C73.609543,133.140274 66.568398,129.030609 59.384121,125.190643 
	C57.923729,124.410065 56.874420,123.674171 57.002655,121.457184 
z"/>
<path fill="#FF6A00" opacity="1.000000" stroke="none" 
	d="
M198.606644,124.135406 
	C190.578949,128.618271 182.966217,133.007950 175.279449,137.263901 
	C169.371048,140.535233 165.014496,137.944260 165.002167,131.272995 
	C164.991699,125.607704 164.935455,119.941284 165.031876,114.277618 
	C165.069168,112.086082 164.572220,110.719894 162.354904,109.623154 
	C157.699036,107.320244 153.369904,104.360329 148.730133,102.020088 
	C145.450653,100.365959 143.854965,98.411736 143.831802,94.434669 
	C143.808792,90.483749 145.991562,89.179115 148.765732,87.607506 
	C155.419922,83.837807 162.017075,79.958534 168.511566,75.921310 
	C170.465912,74.706421 172.271027,74.602196 174.034592,75.607262 
	C182.092545,80.199509 190.051468,84.965721 198.117310,89.543732 
	C199.426285,90.286690 200.043579,90.942528 200.031662,92.502647 
	C199.955292,102.499588 199.981400,112.497314 199.972717,122.494781 
	C199.972107,123.204437 199.752579,123.775208 198.606644,124.135406 
z"/>
<path fill="#FF6A00" opacity="1.000000" stroke="none" 
	d="
M32.999989,167.087128 
	C32.997528,163.112183 31.764915,159.351624 38.057587,159.780319 
	C42.335850,160.071793 43.525234,161.196457 43.058270,165.190109 
	C42.750725,167.820328 43.414974,170.596222 42.916016,173.165497 
	C41.786896,178.979675 44.489571,182.134186 49.287563,184.763733 
	C65.131554,193.447037 80.861183,202.340347 96.587013,211.237350 
	C105.515152,216.288467 114.273384,221.645401 123.282043,226.544861 
	C125.494095,227.747910 127.364082,229.934219 131.161972,227.669632 
	C147.518478,217.916687 164.337494,208.942398 180.894119,199.519455 
	C184.026428,197.736740 185.214035,199.028290 186.245331,201.660522 
	C187.164856,204.007492 191.047440,206.241989 186.553650,208.778290 
	C168.120270,219.182129 149.657318,229.533722 131.249908,239.983231 
	C128.551620,241.514969 126.373482,240.854080 123.933243,239.448669 
	C110.253128,231.569977 96.507362,223.805389 82.808922,215.958344 
	C66.848534,206.815598 50.948143,197.567062 34.922703,188.540222 
	C33.006340,187.460754 32.988121,186.226868 32.993462,184.573135 
	C33.011757,178.907547 33.000179,173.241882 32.999989,167.087128 
z"/>
<path fill="#FF6A00" opacity="1.000000" stroke="none" 
	d="
M199.730774,188.691101 
	C201.768967,187.291901 203.377487,185.636978 205.312668,185.038574 
	C212.243896,182.895309 213.265930,178.223419 213.170135,171.542099 
	C212.766800,143.407028 212.959793,115.262749 213.049072,87.122200 
	C213.059814,83.731590 212.480881,81.731133 208.978424,79.819969 
	C194.993088,72.188690 181.306976,63.999577 167.699341,55.706448 
	C166.780853,55.146671 162.170151,54.828083 165.034454,51.630253 
	C167.130173,49.290504 166.416321,42.463970 173.123642,46.484375 
	C189.302826,56.182243 205.672180,65.564484 222.031876,74.957245 
	C223.859390,76.006477 224.008682,77.323326 224.008102,79.028526 
	C223.996246,113.996513 223.995819,148.964493 224.010498,183.932480 
	C224.011139,185.458466 224.127823,187.103210 222.497910,187.812622 
	C216.479630,190.432083 211.365692,194.558136 205.701141,197.765305 
	C203.418625,199.057632 202.054886,198.661819 200.869949,196.413284 
	C200.041656,194.841492 198.967697,193.397400 197.980331,191.911652 
	C196.745377,190.053329 197.706131,189.300171 199.730774,188.691101 
z"/>
<path fill="#FF6A00" opacity="1.000000" stroke="none" 
	d="
M79.638664,62.729317 
	C67.955811,69.271225 56.644463,75.711052 45.176910,81.859535 
	C42.770889,83.149567 43.008778,84.862816 43.007343,86.794037 
	C42.994862,103.610527 42.855637,120.429176 43.104630,137.241989 
	C43.164562,141.288773 41.930893,142.289154 38.117805,142.104599 
	C34.808537,141.944458 32.800358,142.008530 32.871819,137.487122 
	C33.174389,118.344398 33.057552,99.193764 32.933994,80.047058 
	C32.916798,77.382111 33.768642,76.198273 36.118904,74.877533 
	C57.533188,62.843655 78.808418,50.562683 100.160583,38.417747 
	C109.213997,33.268246 118.331215,28.229177 127.477509,23.246531 
	C128.933014,22.453619 130.330795,21.423847 132.451797,22.738558 
	C138.386398,26.417139 144.579193,29.677357 150.636978,33.160290 
	C152.117767,34.011669 153.580460,34.353081 151.759048,36.996437 
	C146.993683,43.912251 147.071762,44.397594 139.918213,39.322735 
	C133.639587,34.868561 128.314468,34.347458 121.377686,38.682655 
	C108.291161,46.861172 94.519310,53.942802 81.042770,61.498993 
	C80.621109,61.735416 80.314728,62.177425 79.638664,62.729317 
z"/>
<path fill="#FF6A00" opacity="1.000000" stroke="none" 
	d="
M135.231995,52.743717 
	C141.653976,56.668289 147.807556,60.333569 153.958954,64.002472 
	C158.244202,66.558342 158.486511,73.394531 154.313263,75.929161 
	C150.704010,78.121277 147.099472,80.361961 143.310974,82.207855 
	C138.515305,84.544472 134.034149,86.839828 136.801971,95.187271 
	C131.255295,91.197929 126.729645,88.728378 121.921913,94.247932 
	C123.857491,87.327667 119.899246,85.019356 115.437340,82.728020 
	C110.952690,80.425011 106.693146,77.682030 102.346870,75.111710 
	C99.280174,73.298119 98.737328,66.973175 101.729042,65.135788 
	C110.179794,59.945675 118.778999,54.997444 127.313606,49.943607 
	C130.853394,47.847488 132.248093,52.137135 135.231995,52.743717 
z"/>
<path fill="#FF6A00" opacity="1.000000" stroke="none" 
	d="
M92.003624,162.516006 
	C92.000496,169.450882 92.040100,175.936203 91.985634,182.420731 
	C91.948944,186.790695 86.065735,189.894089 82.265099,187.687820 
	C75.242683,183.611328 68.245575,179.481049 61.091263,175.646835 
	C58.112709,174.050537 56.812450,172.182037 56.918690,168.690781 
	C57.171455,160.384384 56.965549,152.064880 57.011982,143.751053 
	C57.044308,137.963379 61.603184,135.233231 66.794937,137.996277 
	C71.525108,140.513687 76.356956,142.955856 80.692039,146.061966 
	C83.970154,148.410767 86.517708,148.416779 89.401756,145.936890 
	C90.022049,145.403534 90.710075,144.894699 91.998192,145.446793 
	C91.069740,150.059769 92.765244,153.358322 97.449715,155.253906 
	C99.242165,155.979233 100.113968,157.320511 96.931778,158.218842 
	C95.116653,158.731247 92.170822,158.950821 92.003624,162.516006 
z"/>
<path fill="#FF6A00" opacity="1.000000" stroke="none" 
	d="
M158.126709,155.974503 
	C162.599899,153.599045 167.017960,151.569550 164.883698,145.489944 
	C166.112366,145.021835 166.710693,145.164520 167.214371,145.696793 
	C171.094666,149.797272 174.281448,147.160019 177.751221,144.843521 
	C181.931519,142.052658 186.323639,139.569641 190.695312,137.078369 
	C193.358826,135.560501 199.904678,139.081833 199.947906,142.169098 
	C200.080505,151.641922 199.978531,161.117828 200.014099,170.592377 
	C200.020309,172.244446 199.475342,173.218811 197.918320,174.067993 
	C189.932373,178.423584 182.086639,183.036713 174.091660,187.375076 
	C169.840775,189.681747 165.030472,186.636154 165.004715,181.838821 
	C164.982407,177.683380 164.592865,173.477783 165.095154,169.383850 
	C165.854416,163.195541 164.275208,158.655563 158.126709,155.974503 
z"/>
</svg>