<svg version="1.1" id="Layer_1" xmlns="http://www.w3.org/2000/svg" xmlns:xlink="http://www.w3.org/1999/xlink" x="0px" y="0px"
	 width="100%" viewBox="0 0 284 292" enable-background="new 0 0 284 292" xml:space="preserve">
<path fill="#FEFDFC" opacity="1.000000" stroke="none" 
	d="
M160.000000,293.000000 
	C106.666672,293.000000 53.833347,293.000000 1.000014,293.000000 
	C1.000010,195.666687 1.000010,98.333366 1.000005,1.000040 
	C95.666634,1.000027 190.333267,1.000027 284.999939,1.000013 
	C284.999939,98.333290 284.999939,195.666580 284.999969,292.999939 
	C243.500000,293.000000 202.000000,293.000000 160.000000,293.000000 
M149.723770,113.789268 
	C147.596146,112.509697 145.539780,111.081772 143.311600,110.011536 
	C142.152893,109.454994 140.352158,108.907501 139.418106,109.415741 
	C129.823090,114.636635 120.279198,119.962601 110.905823,125.568230 
	C109.428947,126.451454 108.067116,128.854172 108.023254,130.588989 
	C107.757973,141.082001 107.796875,151.586899 107.996651,162.082809 
	C108.025398,163.593735 109.081436,165.728134 110.322151,166.469833 
	C119.133804,171.737396 128.063507,176.817276 137.099136,181.690826 
	C138.602783,182.501831 141.190094,182.753891 142.623947,182.008560 
	C151.880005,177.197159 161.028671,172.162323 170.016068,166.867325 
	C171.506088,165.989456 172.826584,163.496323 172.872879,161.714493 
	C173.141235,151.388397 173.163071,141.047180 172.862793,130.722870 
	C172.806854,128.799515 171.378830,126.182732 169.773514,125.167313 
	C163.493866,121.195206 156.889175,117.736992 149.723770,113.789268 
M87.402657,153.141861 
	C92.948814,154.306168 97.508766,150.857101 97.533531,145.429718 
	C97.562378,139.105606 97.801079,132.766479 97.444847,126.462341 
	C97.219559,122.475464 98.973732,120.436501 102.185432,118.694229 
	C108.433777,115.304649 114.592758,111.740913 120.684364,108.075836 
	C123.698021,106.262642 123.451210,99.016144 120.446152,97.211136 
	C111.812126,92.025040 103.129471,86.919273 94.526131,81.683044 
	C91.430908,79.799202 88.559456,80.161812 85.626282,81.878723 
	C79.062111,85.720993 72.589058,89.732689 65.899109,93.342178 
	C60.094143,96.474190 56.028370,99.792542 56.996452,107.638443 
	C57.946133,115.335220 57.292374,123.264038 56.939747,131.072845 
	C56.764137,134.961609 58.163658,137.196625 61.518917,138.960541 
	C70.004616,143.421646 78.353218,148.143524 87.402657,153.141861 
M176.775711,117.771973 
	C181.797302,119.270836 183.814392,122.382149 183.375229,127.820000 
	C182.867447,134.107941 183.198273,140.469116 183.276718,146.797104 
	C183.337280,151.682190 188.642776,155.062103 192.948700,152.829697 
	C201.462494,148.415726 209.957947,143.949875 218.270264,139.173553 
	C220.900940,137.661942 224.245514,136.594879 224.073944,132.017365 
	C223.693680,121.871964 224.095337,111.698532 223.808395,101.546982 
	C223.763336,99.953423 222.121384,97.868126 220.636597,96.941933 
	C212.791107,92.047951 204.723282,87.512253 196.808792,82.726273 
	C193.174133,80.528358 189.997849,79.481789 185.858109,82.246750 
	C178.282654,87.306458 170.385010,91.913750 162.409424,96.325958 
	C160.033829,97.640175 158.699371,98.797867 158.990540,101.553123 
	C159.286697,104.355316 158.149734,107.271675 162.063934,109.065300 
	C166.991455,111.323257 171.460373,114.582047 176.775711,117.771973 
M155.423920,186.953659 
	C151.782959,188.912994 148.057358,190.732727 144.526566,192.873718 
	C141.440186,194.745239 138.539688,194.507904 135.624252,192.807465 
	C131.072922,190.152908 126.741798,187.051208 121.994743,184.827744 
	C119.108208,183.475693 115.467064,182.504639 112.430542,182.997879 
	C108.124512,183.697342 107.694237,187.555603 107.804688,191.568497 
	C108.056358,200.712814 107.688438,209.876236 108.035057,219.014328 
	C108.112495,221.055878 109.589836,223.807541 111.282234,224.896851 
	C120.175484,230.621140 129.317612,235.963165 138.459396,241.290222 
	C139.384598,241.829346 141.147507,241.844238 142.078735,241.318237 
	C151.279922,236.120819 160.501190,230.937454 169.427277,225.292358 
	C171.247391,224.141266 172.783401,221.113068 172.867111,218.890564 
	C173.236282,209.087692 173.047607,199.262955 173.018188,189.446259 
	C173.001175,183.763855 168.826950,180.621506 163.450867,182.537613 
	C160.839645,183.468292 158.518433,185.212662 155.423920,186.953659 
M75.103127,237.283508 
	C77.179886,238.642853 79.187202,240.125290 81.344299,241.342209 
	C100.085533,251.915207 118.837440,262.469757 137.650436,272.914062 
	C138.898575,273.606964 141.029724,274.024353 142.143311,273.430969 
	C149.295135,269.620270 156.278763,265.493805 163.315277,261.466888 
	C177.823486,253.164032 192.328568,244.855743 206.839325,236.557373 
	C208.874054,235.393768 211.587875,234.349167 209.236832,231.428360 
	C207.345490,229.078644 207.768021,223.052353 201.877914,226.304474 
	C194.949646,230.129776 187.948822,233.825668 181.061264,237.722198 
	C167.974945,245.125504 154.964203,252.662598 141.855408,260.025452 
	C140.980713,260.516754 139.316986,260.418335 138.404694,259.907562 
	C119.385994,249.259064 100.431747,238.495529 81.445526,227.788864 
	C70.080276,221.379791 58.805721,214.792419 47.244915,208.755264 
	C41.736542,205.878738 38.851818,202.358429 39.940151,195.960632 
	C40.353210,193.532471 40.009666,190.975433 40.009060,188.477127 
	C40.006599,178.301544 40.006027,178.297928 29.599337,179.169510 
	C29.326126,179.192413 29.077631,179.510376 28.387215,179.989258 
	C28.387215,187.998596 28.712906,196.316742 28.265810,204.593140 
	C27.994968,209.606827 30.269753,212.276703 34.224434,214.381577 
	C39.909954,217.407715 45.582916,220.461517 51.191765,223.626633 
	C58.972187,228.017136 66.688171,232.521835 75.103127,237.283508 
M140.333542,18.765905 
	C135.710876,21.639452 131.195023,24.704714 126.445450,27.350430 
	C112.456032,35.143139 98.323219,42.678604 84.340950,50.483917 
	C66.570114,60.404121 48.862648,70.439537 31.231050,80.604279 
	C29.866776,81.390785 28.518751,83.582336 28.506897,85.131126 
	C28.332222,107.950600 28.368309,130.771866 28.432837,153.592484 
	C28.436247,154.798340 29.023809,156.985199 29.534367,157.044769 
	C32.470398,157.387375 35.604393,157.729279 38.365799,156.966125 
	C39.351822,156.693619 39.926231,153.334671 39.937691,151.380112 
	C40.050972,132.058044 39.956032,112.734734 40.083084,93.412842 
	C40.096016,91.445946 40.556427,88.539711 41.864574,87.685379 
	C47.788307,83.816658 54.078476,80.505859 60.260494,77.036560 
	C68.734276,72.281128 77.242851,67.587616 85.711693,62.823456 
	C93.321083,58.542782 100.892822,54.195267 108.488701,49.890522 
	C116.950478,45.095047 125.603394,40.605350 133.830750,35.437508 
	C140.669067,31.142172 143.940628,30.967184 150.523361,35.636280 
	C154.248062,38.278191 158.361237,40.372425 162.981918,43.119015 
	C164.704193,39.479446 166.286194,36.136345 168.053696,32.401207 
	C161.621277,28.681631 155.690323,25.084040 149.589737,21.801706 
	C146.909409,20.359598 143.883530,19.559717 140.333542,18.765905 
M251.853943,181.500000 
	C251.854492,149.684265 251.840668,117.868530 251.879425,86.052849 
	C251.883011,83.106400 251.559921,81.175705 248.310425,79.389984 
	C234.976913,72.062737 221.991043,64.103851 208.860291,56.406319 
	C202.066284,52.423515 195.236786,48.501251 188.243835,44.447601 
	C186.352249,47.898457 184.642227,51.018070 182.745377,54.478512 
	C187.322937,56.989403 191.574722,59.171444 195.680099,61.600887 
	C209.456604,69.753403 223.101257,78.133446 236.996002,86.077194 
	C239.603348,87.567841 240.515778,88.912453 240.509995,91.751755 
	C240.436356,127.898315 240.439377,164.045120 240.505219,200.191711 
	C240.510025,202.830795 239.774139,204.290558 237.266479,205.579315 
	C231.937820,208.317886 226.896072,211.614761 221.474503,214.838699 
	C223.988098,218.680771 225.833984,221.502243 227.606339,224.211334 
	C233.334076,221.046402 238.204361,218.197372 243.217331,215.626572 
	C249.046661,212.637100 253.041199,209.091110 252.024323,201.467026 
	C251.194824,195.247742 251.854385,188.829834 251.853943,181.500000 
M183.270706,206.732910 
	C185.726456,210.375458 188.797852,212.863480 193.324066,210.550232 
	C201.569077,206.336365 209.774094,202.024475 217.797379,197.408630 
	C220.186493,196.034180 223.554794,193.597321 223.668488,191.495468 
	C224.261383,180.534790 224.010193,169.524612 223.908661,158.533005 
	C223.884262,155.892609 216.769562,151.257996 214.646164,152.456421 
	C210.776779,154.640244 207.287247,157.633911 203.236954,159.327850 
	C197.371979,161.780746 192.283356,170.372070 184.589432,162.499802 
	C184.491180,162.399292 184.001099,162.681717 183.175201,162.960464 
	C184.599396,168.579041 182.406372,172.561493 175.856262,173.957520 
	C177.274155,175.465988 177.802917,176.529114 178.595154,176.788986 
	C183.236542,178.311462 183.434311,181.834457 183.305405,185.891464 
	C183.093933,192.546890 183.252365,199.214081 183.270706,206.732910 
M131.273560,55.807507 
	C128.982071,57.068283 126.646988,58.256649 124.408073,59.604736 
	C119.590958,62.505226 114.693878,65.301056 110.078262,68.498756 
	C106.661011,70.866226 106.833649,77.493523 110.165237,79.514183 
	C114.544579,82.170311 118.955086,84.801125 123.509979,87.134842 
	C128.646957,89.766792 133.574493,92.333458 132.701752,99.406105 
	C132.661636,99.731247 133.256775,100.134766 133.911865,100.938171 
	C138.486450,96.268578 143.350922,96.704727 148.522629,101.187584 
	C147.488525,94.584114 150.936310,91.189072 155.336578,88.492958 
	C159.705688,85.815926 164.161087,83.271538 168.655380,80.809006 
	C174.561035,77.573151 175.042343,70.646095 169.260681,66.958809 
	C162.858749,62.875942 155.800674,59.737301 149.734421,55.235912 
	C143.335251,50.487480 137.807144,49.994381 131.273560,55.807507 
M57.228859,163.685471 
	C57.158337,172.515305 56.911224,181.350052 57.156750,190.171097 
	C57.209949,192.082352 58.566036,194.610519 60.127659,195.704483 
	C64.867599,199.024948 69.935211,201.902588 75.004471,204.720139 
	C79.056862,206.972488 83.240639,209.013184 87.471817,210.912323 
	C91.860962,212.882355 97.481697,209.299179 97.527779,204.624939 
	C97.581970,199.127472 97.861366,193.605576 97.456741,188.137665 
	C97.045433,182.579651 97.443810,177.935089 104.010948,176.472061 
	C104.326622,176.401718 104.510429,175.739410 105.092827,174.821152 
	C98.949333,172.928970 96.254028,168.643005 97.438797,161.425110 
	C94.816734,163.348770 93.480469,164.695862 91.864037,165.397507 
	C90.599815,165.946243 88.649765,166.297501 87.585938,165.700455 
	C80.821198,161.903763 74.121948,157.967300 67.615677,153.746201 
	C65.458832,152.346863 64.213089,152.608551 61.909004,153.512802 
	C57.206047,155.358459 57.008484,158.779358 57.228859,163.685471 
z"/>
<path fill="#EE6C19" opacity="1.000000" stroke="none" 
	d="
M150.064514,113.938530 
	C156.889175,117.736992 163.493866,121.195206 169.773514,125.167313 
	C171.378830,126.182732 172.806854,128.799515 172.862793,130.722870 
	C173.163071,141.047180 173.141235,151.388397 172.872879,161.714493 
	C172.826584,163.496323 171.506088,165.989456 170.016068,166.867325 
	C161.028671,172.162323 151.880005,177.197159 142.623947,182.008560 
	C141.190094,182.753891 138.602783,182.501831 137.099136,181.690826 
	C128.063507,176.817276 119.133804,171.737396 110.322151,166.469833 
	C109.081436,165.728134 108.025398,163.593735 107.996651,162.082809 
	C107.796875,151.586899 107.757973,141.082001 108.023254,130.588989 
	C108.067116,128.854172 109.428947,126.451454 110.905823,125.568230 
	C120.279198,119.962601 129.823090,114.636635 139.418106,109.415741 
	C140.352158,108.907501 142.152893,109.454994 143.311600,110.011536 
	C145.539780,111.081772 147.596146,112.509697 150.064514,113.938530 
z"/>
<path fill="#EE6D1A" opacity="1.000000" stroke="none" 
	d="
M87.079697,152.951401 
	C78.353218,148.143524 70.004616,143.421646 61.518917,138.960541 
	C58.163658,137.196625 56.764137,134.961609 56.939747,131.072845 
	C57.292374,123.264038 57.946133,115.335220 56.996452,107.638443 
	C56.028370,99.792542 60.094143,96.474190 65.899109,93.342178 
	C72.589058,89.732689 79.062111,85.720993 85.626282,81.878723 
	C88.559456,80.161812 91.430908,79.799202 94.526131,81.683044 
	C103.129471,86.919273 111.812126,92.025040 120.446152,97.211136 
	C123.451210,99.016144 123.698021,106.262642 120.684364,108.075836 
	C114.592758,111.740913 108.433777,115.304649 102.185432,118.694229 
	C98.973732,120.436501 97.219559,122.475464 97.444847,126.462341 
	C97.801079,132.766479 97.562378,139.105606 97.533531,145.429718 
	C97.508766,150.857101 92.948814,154.306168 87.079697,152.951401 
z"/>
<path fill="#EE6E1B" opacity="1.000000" stroke="none" 
	d="
M176.451431,117.590485 
	C171.460373,114.582047 166.991455,111.323257 162.063934,109.065300 
	C158.149734,107.271675 159.286697,104.355316 158.990540,101.553123 
	C158.699371,98.797867 160.033829,97.640175 162.409424,96.325958 
	C170.385010,91.913750 178.282654,87.306458 185.858109,82.246750 
	C189.997849,79.481789 193.174133,80.528358 196.808792,82.726273 
	C204.723282,87.512253 212.791107,92.047951 220.636597,96.941933 
	C222.121384,97.868126 223.763336,99.953423 223.808395,101.546982 
	C224.095337,111.698532 223.693680,121.871964 224.073944,132.017365 
	C224.245514,136.594879 220.900940,137.661942 218.270264,139.173553 
	C209.957947,143.949875 201.462494,148.415726 192.948700,152.829697 
	C188.642776,155.062103 183.337280,151.682190 183.276718,146.797104 
	C183.198273,140.469116 182.867447,134.107941 183.375229,127.820000 
	C183.814392,122.382149 181.797302,119.270836 176.451431,117.590485 
z"/>
<path fill="#EE6D1A" opacity="1.000000" stroke="none" 
	d="
M155.744934,186.771149 
	C158.518433,185.212662 160.839645,183.468292 163.450867,182.537613 
	C168.826950,180.621506 173.001175,183.763855 173.018188,189.446259 
	C173.047607,199.262955 173.236282,209.087692 172.867111,218.890564 
	C172.783401,221.113068 171.247391,224.141266 169.427277,225.292358 
	C160.501190,230.937454 151.279922,236.120819 142.078735,241.318237 
	C141.147507,241.844238 139.384598,241.829346 138.459396,241.290222 
	C129.317612,235.963165 120.175484,230.621140 111.282234,224.896851 
	C109.589836,223.807541 108.112495,221.055878 108.035057,219.014328 
	C107.688438,209.876236 108.056358,200.712814 107.804688,191.568497 
	C107.694237,187.555603 108.124512,183.697342 112.430542,182.997879 
	C115.467064,182.504639 119.108208,183.475693 121.994743,184.827744 
	C126.741798,187.051208 131.072922,190.152908 135.624252,192.807465 
	C138.539688,194.507904 141.440186,194.745239 144.526566,192.873718 
	C148.057358,190.732727 151.782959,188.912994 155.744934,186.771149 
z"/>
<path fill="#EF7323" opacity="1.000000" stroke="none" 
	d="
M74.767441,237.130585 
	C66.688171,232.521835 58.972187,228.017136 51.191765,223.626633 
	C45.582916,220.461517 39.909954,217.407715 34.224434,214.381577 
	C30.269753,212.276703 27.994968,209.606827 28.265810,204.593140 
	C28.712906,196.316742 28.387215,187.998596 28.387215,179.989258 
	C29.077631,179.510376 29.326126,179.192413 29.599337,179.169510 
	C40.006027,178.297928 40.006599,178.301544 40.009060,188.477127 
	C40.009666,190.975433 40.353210,193.532471 39.940151,195.960632 
	C38.851818,202.358429 41.736542,205.878738 47.244915,208.755264 
	C58.805721,214.792419 70.080276,221.379791 81.445526,227.788864 
	C100.431747,238.495529 119.385994,249.259064 138.404694,259.907562 
	C139.316986,260.418335 140.980713,260.516754 141.855408,260.025452 
	C154.964203,252.662598 167.974945,245.125504 181.061264,237.722198 
	C187.948822,233.825668 194.949646,230.129776 201.877914,226.304474 
	C207.768021,223.052353 207.345490,229.078644 209.236832,231.428360 
	C211.587875,234.349167 208.874054,235.393768 206.839325,236.557373 
	C192.328568,244.855743 177.823486,253.164032 163.315277,261.466888 
	C156.278763,265.493805 149.295135,269.620270 142.143311,273.430969 
	C141.029724,274.024353 138.898575,273.606964 137.650436,272.914062 
	C118.837440,262.469757 100.085533,251.915207 81.344299,241.342209 
	C79.187202,240.125290 77.179886,238.642853 74.767441,237.130585 
z"/>
<path fill="#EF7324" opacity="1.000000" stroke="none" 
	d="
M140.674042,18.617069 
	C143.883530,19.559717 146.909409,20.359598 149.589737,21.801706 
	C155.690323,25.084040 161.621277,28.681631 168.053696,32.401207 
	C166.286194,36.136345 164.704193,39.479446 162.981918,43.119015 
	C158.361237,40.372425 154.248062,38.278191 150.523361,35.636280 
	C143.940628,30.967184 140.669067,31.142172 133.830750,35.437508 
	C125.603394,40.605350 116.950478,45.095047 108.488701,49.890522 
	C100.892822,54.195267 93.321083,58.542782 85.711693,62.823456 
	C77.242851,67.587616 68.734276,72.281128 60.260494,77.036560 
	C54.078476,80.505859 47.788307,83.816658 41.864574,87.685379 
	C40.556427,88.539711 40.096016,91.445946 40.083084,93.412842 
	C39.956032,112.734734 40.050972,132.058044 39.937691,151.380112 
	C39.926231,153.334671 39.351822,156.693619 38.365799,156.966125 
	C35.604393,157.729279 32.470398,157.387375 29.534367,157.044769 
	C29.023809,156.985199 28.436247,154.798340 28.432837,153.592484 
	C28.368309,130.771866 28.332222,107.950600 28.506897,85.131126 
	C28.518751,83.582336 29.866776,81.390785 31.231050,80.604279 
	C48.862648,70.439537 66.570114,60.404121 84.340950,50.483917 
	C98.323219,42.678604 112.456032,35.143139 126.445450,27.350430 
	C131.195023,24.704714 135.710876,21.639452 140.674042,18.617069 
z"/>
<path fill="#EF7324" opacity="1.000000" stroke="none" 
	d="
M251.853821,182.000000 
	C251.854385,188.829834 251.194824,195.247742 252.024323,201.467026 
	C253.041199,209.091110 249.046661,212.637100 243.217331,215.626572 
	C238.204361,218.197372 233.334076,221.046402 227.606339,224.211334 
	C225.833984,221.502243 223.988098,218.680771 221.474503,214.838699 
	C226.896072,211.614761 231.937820,208.317886 237.266479,205.579315 
	C239.774139,204.290558 240.510025,202.830795 240.505219,200.191711 
	C240.439377,164.045120 240.436356,127.898315 240.509995,91.751755 
	C240.515778,88.912453 239.603348,87.567841 236.996002,86.077194 
	C223.101257,78.133446 209.456604,69.753403 195.680099,61.600887 
	C191.574722,59.171444 187.322937,56.989403 182.745377,54.478512 
	C184.642227,51.018070 186.352249,47.898457 188.243835,44.447601 
	C195.236786,48.501251 202.066284,52.423515 208.860291,56.406319 
	C221.991043,64.103851 234.976913,72.062737 248.310425,79.389984 
	C251.559921,81.175705 251.883011,83.106400 251.879425,86.052849 
	C251.840668,117.868530 251.854492,149.684265 251.853821,182.000000 
z"/>
<path fill="#EE6F1D" opacity="1.000000" stroke="none" 
	d="
M183.262756,206.304611 
	C183.252365,199.214081 183.093933,192.546890 183.305405,185.891464 
	C183.434311,181.834457 183.236542,178.311462 178.595154,176.788986 
	C177.802917,176.529114 177.274155,175.465988 175.856262,173.957520 
	C182.406372,172.561493 184.599396,168.579041 183.175201,162.960464 
	C184.001099,162.681717 184.491180,162.399292 184.589432,162.499802 
	C192.283356,170.372070 197.371979,161.780746 203.236954,159.327850 
	C207.287247,157.633911 210.776779,154.640244 214.646164,152.456421 
	C216.769562,151.257996 223.884262,155.892609 223.908661,158.533005 
	C224.010193,169.524612 224.261383,180.534790 223.668488,191.495468 
	C223.554794,193.597321 220.186493,196.034180 217.797379,197.408630 
	C209.774094,202.024475 201.569077,206.336365 193.324066,210.550232 
	C188.797852,212.863480 185.726456,210.375458 183.262756,206.304611 
z"/>
<path fill="#EE6E1C" opacity="1.000000" stroke="none" 
	d="
M131.613571,55.654549 
	C137.807144,49.994381 143.335251,50.487480 149.734421,55.235912 
	C155.800674,59.737301 162.858749,62.875942 169.260681,66.958809 
	C175.042343,70.646095 174.561035,77.573151 168.655380,80.809006 
	C164.161087,83.271538 159.705688,85.815926 155.336578,88.492958 
	C150.936310,91.189072 147.488525,94.584114 148.522629,101.187584 
	C143.350922,96.704727 138.486450,96.268578 133.911865,100.938171 
	C133.256775,100.134766 132.661636,99.731247 132.701752,99.406105 
	C133.574493,92.333458 128.646957,89.766792 123.509979,87.134842 
	C118.955086,84.801125 114.544579,82.170311 110.165237,79.514183 
	C106.833649,77.493523 106.661011,70.866226 110.078262,68.498756 
	C114.693878,65.301056 119.590958,62.505226 124.408073,59.604736 
	C126.646988,58.256649 128.982071,57.068283 131.613571,55.654549 
z"/>
<path fill="#EE6E1B" opacity="1.000000" stroke="none" 
	d="
M57.233620,163.215576 
	C57.008484,158.779358 57.206047,155.358459 61.909004,153.512802 
	C64.213089,152.608551 65.458832,152.346863 67.615677,153.746201 
	C74.121948,157.967300 80.821198,161.903763 87.585938,165.700455 
	C88.649765,166.297501 90.599815,165.946243 91.864037,165.397507 
	C93.480469,164.695862 94.816734,163.348770 97.438797,161.425110 
	C96.254028,168.643005 98.949333,172.928970 105.092827,174.821152 
	C104.510429,175.739410 104.326622,176.401718 104.010948,176.472061 
	C97.443810,177.935089 97.045433,182.579651 97.456741,188.137665 
	C97.861366,193.605576 97.581970,199.127472 97.527779,204.624939 
	C97.481697,209.299179 91.860962,212.882355 87.471817,210.912323 
	C83.240639,209.013184 79.056862,206.972488 75.004471,204.720139 
	C69.935211,201.902588 64.867599,199.024948 60.127659,195.704483 
	C58.566036,194.610519 57.209949,192.082352 57.156750,190.171097 
	C56.911224,181.350052 57.158337,172.515305 57.233620,163.215576 
z"/>
</svg>